solid OpenSCAD_Model
  facet normal 0 0 -1
    outer loop
      vertex -5.5 -9 0
      vertex 5.5 9 0
      vertex 5.5 -9 0
    endloop
  endfacet
  facet normal -0 0 -1
    outer loop
      vertex 5.5 9 0
      vertex -5.5 -9 0
      vertex -5.5 9 0
    endloop
  endfacet
  facet normal 0 0 1
    outer loop
      vertex 5.5 9 7
      vertex 4 0 7
      vertex 5.5 -9 7
    endloop
  endfacet
  facet normal 0 0 1
    outer loop
      vertex 5.5 9 7
      vertex 3.97818 0.33284 7
      vertex 4 0 7
    endloop
  endfacet
  facet normal 0 0 1
    outer loop
      vertex 5.5 9 7
      vertex 3.9131 0.659988 7
      vertex 3.97818 0.33284 7
    endloop
  endfacet
  facet normal 0 0 1
    outer loop
      vertex 5.5 9 7
      vertex 3.80588 0.97583 7
      vertex 3.9131 0.659988 7
    endloop
  endfacet
  facet normal 0 0 1
    outer loop
      vertex 5.5 9 7
      vertex 3.65836 1.27499 7
      vertex 3.80588 0.97583 7
    endloop
  endfacet
  facet normal 0 0 1
    outer loop
      vertex 5.5 9 7
      vertex 3.47304 1.55234 7
      vertex 3.65836 1.27499 7
    endloop
  endfacet
  facet normal 0 0 1
    outer loop
      vertex 5.5 9 7
      vertex 3.25311 1.80312 7
      vertex 3.47304 1.55234 7
    endloop
  endfacet
  facet normal 0 0 1
    outer loop
      vertex 5.5 9 7
      vertex 3.00233 2.02304 7
      vertex 3.25311 1.80312 7
    endloop
  endfacet
  facet normal 0 0 1
    outer loop
      vertex 5.5 9 7
      vertex 2.72499 2.20836 7
      vertex 3.00233 2.02304 7
    endloop
  endfacet
  facet normal 0 0 1
    outer loop
      vertex 5.5 9 7
      vertex 2.42584 2.35588 7
      vertex 2.72499 2.20836 7
    endloop
  endfacet
  facet normal 0 0 1
    outer loop
      vertex 5.5 9 7
      vertex 2.10999 2.4631 7
      vertex 2.42584 2.35588 7
    endloop
  endfacet
  facet normal 0 0 1
    outer loop
      vertex 5.5 9 7
      vertex 1.78284 2.52818 7
      vertex 2.10999 2.4631 7
    endloop
  endfacet
  facet normal 0 0 1
    outer loop
      vertex 5.5 9 7
      vertex 1.45 2.54999 7
      vertex 1.78284 2.52818 7
    endloop
  endfacet
  facet normal 0 0 1
    outer loop
      vertex 5.5 9 7
      vertex 1.11716 2.52818 7
      vertex 1.45 2.54999 7
    endloop
  endfacet
  facet normal -0 0 1
    outer loop
      vertex -5.5 9 7
      vertex 1.11716 2.52818 7
      vertex 5.5 9 7
    endloop
  endfacet
  facet normal 0 0 1
    outer loop
      vertex 1.11716 2.52818 7
      vertex -5.5 9 7
      vertex 0.790009 2.4631 7
    endloop
  endfacet
  facet normal 0 0 1
    outer loop
      vertex 0.790009 2.4631 7
      vertex -5.5 9 7
      vertex 0.474152 2.35588 7
    endloop
  endfacet
  facet normal 0 0 1
    outer loop
      vertex 0.474152 2.35588 7
      vertex -5.5 9 7
      vertex 0.174988 2.20836 7
    endloop
  endfacet
  facet normal 0 0 1
    outer loop
      vertex 0.174988 2.20836 7
      vertex -5.5 9 7
      vertex -0.102341 2.02304 7
    endloop
  endfacet
  facet normal 0 0 1
    outer loop
      vertex -0.102341 2.02304 7
      vertex -5.5 9 7
      vertex -0.353119 1.80312 7
    endloop
  endfacet
  facet normal 0 0 1
    outer loop
      vertex -1.07817 0.33284 7
      vertex -5.5 9 7
      vertex -1.09999 0 7
    endloop
  endfacet
  facet normal 0 0 1
    outer loop
      vertex -1.01311 0.659988 7
      vertex -5.5 9 7
      vertex -1.07817 0.33284 7
    endloop
  endfacet
  facet normal 0 0 1
    outer loop
      vertex -0.905884 0.97583 7
      vertex -5.5 9 7
      vertex -1.01311 0.659988 7
    endloop
  endfacet
  facet normal 0 0 1
    outer loop
      vertex -0.758362 1.27499 7
      vertex -5.5 9 7
      vertex -0.905884 0.97583 7
    endloop
  endfacet
  facet normal 0 0 1
    outer loop
      vertex -0.573044 1.55234 7
      vertex -5.5 9 7
      vertex -0.758362 1.27499 7
    endloop
  endfacet
  facet normal 0 0 1
    outer loop
      vertex -0.353119 1.80312 7
      vertex -5.5 9 7
      vertex -0.573044 1.55234 7
    endloop
  endfacet
  facet normal -0 0 1
    outer loop
      vertex 3.97818 -0.33284 7
      vertex 5.5 -9 7
      vertex 4 0 7
    endloop
  endfacet
  facet normal -0 0 1
    outer loop
      vertex 3.9131 -0.659988 7
      vertex 5.5 -9 7
      vertex 3.97818 -0.33284 7
    endloop
  endfacet
  facet normal -0 0 1
    outer loop
      vertex 3.80588 -0.97583 7
      vertex 5.5 -9 7
      vertex 3.9131 -0.659988 7
    endloop
  endfacet
  facet normal -0 0 1
    outer loop
      vertex 3.65836 -1.27499 7
      vertex 5.5 -9 7
      vertex 3.80588 -0.97583 7
    endloop
  endfacet
  facet normal -0 0 1
    outer loop
      vertex 3.47304 -1.55234 7
      vertex 5.5 -9 7
      vertex 3.65836 -1.27499 7
    endloop
  endfacet
  facet normal -0 0 1
    outer loop
      vertex 3.25311 -1.80312 7
      vertex 5.5 -9 7
      vertex 3.47304 -1.55234 7
    endloop
  endfacet
  facet normal -0 0 1
    outer loop
      vertex 3.00233 -2.02304 7
      vertex 5.5 -9 7
      vertex 3.25311 -1.80312 7
    endloop
  endfacet
  facet normal -0 0 1
    outer loop
      vertex 2.72499 -2.20836 7
      vertex 5.5 -9 7
      vertex 3.00233 -2.02304 7
    endloop
  endfacet
  facet normal -0 0 1
    outer loop
      vertex 2.42584 -2.35588 7
      vertex 5.5 -9 7
      vertex 2.72499 -2.20836 7
    endloop
  endfacet
  facet normal -0 0 1
    outer loop
      vertex 2.10999 -2.4631 7
      vertex 5.5 -9 7
      vertex 2.42584 -2.35588 7
    endloop
  endfacet
  facet normal -0 0 1
    outer loop
      vertex 1.78284 -2.52818 7
      vertex 5.5 -9 7
      vertex 2.10999 -2.4631 7
    endloop
  endfacet
  facet normal -0 0 1
    outer loop
      vertex 1.45 -2.54999 7
      vertex 5.5 -9 7
      vertex 1.78284 -2.52818 7
    endloop
  endfacet
  facet normal 0 0 1
    outer loop
      vertex 1.11716 -2.52818 7
      vertex 5.5 -9 7
      vertex 1.45 -2.54999 7
    endloop
  endfacet
  facet normal 0 0 1
    outer loop
      vertex -5.5 -9 7
      vertex 1.11716 -2.52818 7
      vertex 0.790009 -2.4631 7
    endloop
  endfacet
  facet normal 0 0 1
    outer loop
      vertex -5.5 -9 7
      vertex 0.790009 -2.4631 7
      vertex 0.474152 -2.35588 7
    endloop
  endfacet
  facet normal 0 0 1
    outer loop
      vertex -5.5 -9 7
      vertex 0.474152 -2.35588 7
      vertex 0.174988 -2.20836 7
    endloop
  endfacet
  facet normal 0 0 1
    outer loop
      vertex -5.5 -9 7
      vertex 0.174988 -2.20836 7
      vertex -0.102341 -2.02304 7
    endloop
  endfacet
  facet normal 0 0 1
    outer loop
      vertex -5.5 -9 7
      vertex -0.102341 -2.02304 7
      vertex -0.353119 -1.80312 7
    endloop
  endfacet
  facet normal 0 0 1
    outer loop
      vertex -5.5 -9 7
      vertex -0.353119 -1.80312 7
      vertex -0.573044 -1.55234 7
    endloop
  endfacet
  facet normal 0 0 1
    outer loop
      vertex -5.5 -9 7
      vertex -1.09999 0 7
      vertex -5.5 9 7
    endloop
  endfacet
  facet normal 0 0 1
    outer loop
      vertex -1.09999 0 7
      vertex -5.5 -9 7
      vertex -1.07817 -0.33284 7
    endloop
  endfacet
  facet normal 0 0 1
    outer loop
      vertex -1.07817 -0.33284 7
      vertex -5.5 -9 7
      vertex -1.01311 -0.659988 7
    endloop
  endfacet
  facet normal 0 0 1
    outer loop
      vertex 1.11716 -2.52818 7
      vertex -5.5 -9 7
      vertex 5.5 -9 7
    endloop
  endfacet
  facet normal 0 0 1
    outer loop
      vertex -0.758362 -1.27499 7
      vertex -5.5 -9 7
      vertex -0.573044 -1.55234 7
    endloop
  endfacet
  facet normal 0 0 1
    outer loop
      vertex -0.905884 -0.97583 7
      vertex -5.5 -9 7
      vertex -0.758362 -1.27499 7
    endloop
  endfacet
  facet normal 0 0 1
    outer loop
      vertex -1.01311 -0.659988 7
      vertex -5.5 -9 7
      vertex -0.905884 -0.97583 7
    endloop
  endfacet
  facet normal 0 1 -0
    outer loop
      vertex 5.5 9 0
      vertex -5.5 9 7
      vertex 5.5 9 7
    endloop
  endfacet
  facet normal 0 1 0
    outer loop
      vertex -5.5 9 7
      vertex 5.5 9 0
      vertex -5.5 9 0
    endloop
  endfacet
  facet normal -1 0 0
    outer loop
      vertex -5.5 -9 0
      vertex -5.5 9 7
      vertex -5.5 9 0
    endloop
  endfacet
  facet normal -1 -0 0
    outer loop
      vertex -5.5 9 7
      vertex -5.5 -9 0
      vertex -5.5 -9 7
    endloop
  endfacet
  facet normal 0 -1 0
    outer loop
      vertex -5.5 -9 0
      vertex 5.5 -9 7
      vertex -5.5 -9 7
    endloop
  endfacet
  facet normal 0 -1 -0
    outer loop
      vertex 5.5 -9 7
      vertex -5.5 -9 0
      vertex 5.5 -9 0
    endloop
  endfacet
  facet normal 1 -0 0
    outer loop
      vertex 5.5 -9 7
      vertex 5.5 9 0
      vertex 5.5 9 7
    endloop
  endfacet
  facet normal 1 0 0
    outer loop
      vertex 5.5 9 0
      vertex 5.5 -9 7
      vertex 5.5 -9 0
    endloop
  endfacet
  facet normal 0.195107 0.980782 -0
    outer loop
      vertex 1.11716 -2.52818 0.799999
      vertex 0.790009 -2.4631 7
      vertex 1.11716 -2.52818 7
    endloop
  endfacet
  facet normal 0.195107 0.980782 0
    outer loop
      vertex 0.790009 -2.4631 7
      vertex 1.11716 -2.52818 0.799999
      vertex 0.790009 -2.4631 0.799999
    endloop
  endfacet
  facet normal 0.321442 0.946929 -0
    outer loop
      vertex 0.790009 -2.4631 0.799999
      vertex 0.474152 -2.35588 7
      vertex 0.790009 -2.4631 7
    endloop
  endfacet
  facet normal 0.321442 0.946929 0
    outer loop
      vertex 0.474152 -2.35588 7
      vertex 0.790009 -2.4631 0.799999
      vertex 0.474152 -2.35588 0.799999
    endloop
  endfacet
  facet normal 0.442261 0.896886 -0
    outer loop
      vertex 0.474152 -2.35588 0.799999
      vertex 0.174988 -2.20836 7
      vertex 0.474152 -2.35588 7
    endloop
  endfacet
  facet normal 0.442261 0.896886 0
    outer loop
      vertex 0.174988 -2.20836 7
      vertex 0.474152 -2.35588 0.799999
      vertex 0.174988 -2.20836 0.799999
    endloop
  endfacet
  facet normal 0.555601 0.831449 -0
    outer loop
      vertex 0.174988 -2.20836 0.799999
      vertex -0.102341 -2.02304 7
      vertex 0.174988 -2.20836 7
    endloop
  endfacet
  facet normal 0.555601 0.831449 0
    outer loop
      vertex -0.102341 -2.02304 7
      vertex 0.174988 -2.20836 0.799999
      vertex -0.102341 -2.02304 0.799999
    endloop
  endfacet
  facet normal 0.659335 0.751849 -0
    outer loop
      vertex -0.102341 -2.02304 0.799999
      vertex -0.353119 -1.80312 7
      vertex -0.102341 -2.02304 7
    endloop
  endfacet
  facet normal 0.659335 0.751849 0
    outer loop
      vertex -0.353119 -1.80312 7
      vertex -0.102341 -2.02304 0.799999
      vertex -0.353119 -1.80312 0.799999
    endloop
  endfacet
  facet normal 0.751844 0.65934 0
    outer loop
      vertex -0.353119 -1.80312 7
      vertex -0.573044 -1.55234 0.799999
      vertex -0.573044 -1.55234 7
    endloop
  endfacet
  facet normal 0.751844 0.65934 0
    outer loop
      vertex -0.573044 -1.55234 0.799999
      vertex -0.353119 -1.80312 7
      vertex -0.353119 -1.80312 0.799999
    endloop
  endfacet
  facet normal 0.831471 0.555567 0
    outer loop
      vertex -0.573044 -1.55234 7
      vertex -0.758362 -1.27499 0.799999
      vertex -0.758362 -1.27499 7
    endloop
  endfacet
  facet normal 0.831471 0.555567 0
    outer loop
      vertex -0.758362 -1.27499 0.799999
      vertex -0.573044 -1.55234 7
      vertex -0.573044 -1.55234 0.799999
    endloop
  endfacet
  facet normal 0.896882 0.442271 0
    outer loop
      vertex -0.758362 -1.27499 7
      vertex -0.905884 -0.97583 0.799999
      vertex -0.905884 -0.97583 7
    endloop
  endfacet
  facet normal 0.896882 0.442271 0
    outer loop
      vertex -0.905884 -0.97583 0.799999
      vertex -0.758362 -1.27499 7
      vertex -0.758362 -1.27499 0.799999
    endloop
  endfacet
  facet normal 0.946919 0.321472 0
    outer loop
      vertex -0.905884 -0.97583 7
      vertex -1.01311 -0.659988 0.799999
      vertex -1.01311 -0.659988 7
    endloop
  endfacet
  facet normal 0.946919 0.321472 0
    outer loop
      vertex -1.01311 -0.659988 0.799999
      vertex -0.905884 -0.97583 7
      vertex -0.905884 -0.97583 0.799999
    endloop
  endfacet
  facet normal 0.980793 0.195051 0
    outer loop
      vertex -1.01311 -0.659988 7
      vertex -1.07817 -0.33284 0.799999
      vertex -1.07817 -0.33284 7
    endloop
  endfacet
  facet normal 0.980793 0.195051 0
    outer loop
      vertex -1.07817 -0.33284 0.799999
      vertex -1.01311 -0.659988 7
      vertex -1.01311 -0.659988 0.799999
    endloop
  endfacet
  facet normal 0.997858 0.0654166 0
    outer loop
      vertex -1.07817 -0.33284 7
      vertex -1.09999 0 0.799999
      vertex -1.09999 0 7
    endloop
  endfacet
  facet normal 0.997858 0.0654166 0
    outer loop
      vertex -1.09999 0 0.799999
      vertex -1.07817 -0.33284 7
      vertex -1.07817 -0.33284 0.799999
    endloop
  endfacet
  facet normal 0.997858 -0.0654166 0
    outer loop
      vertex -1.09999 0 7
      vertex -1.07817 0.33284 0.799999
      vertex -1.07817 0.33284 7
    endloop
  endfacet
  facet normal 0.997858 -0.0654166 0
    outer loop
      vertex -1.07817 0.33284 0.799999
      vertex -1.09999 0 7
      vertex -1.09999 0 0.799999
    endloop
  endfacet
  facet normal 0.980793 -0.195051 0
    outer loop
      vertex -1.07817 0.33284 7
      vertex -1.01311 0.659988 0.799999
      vertex -1.01311 0.659988 7
    endloop
  endfacet
  facet normal 0.980793 -0.195051 0
    outer loop
      vertex -1.01311 0.659988 0.799999
      vertex -1.07817 0.33284 7
      vertex -1.07817 0.33284 0.799999
    endloop
  endfacet
  facet normal 0.946919 -0.321472 0
    outer loop
      vertex -1.01311 0.659988 7
      vertex -0.905884 0.97583 0.799999
      vertex -0.905884 0.97583 7
    endloop
  endfacet
  facet normal 0.946919 -0.321472 0
    outer loop
      vertex -0.905884 0.97583 0.799999
      vertex -1.01311 0.659988 7
      vertex -1.01311 0.659988 0.799999
    endloop
  endfacet
  facet normal 0.896882 -0.442271 0
    outer loop
      vertex -0.905884 0.97583 7
      vertex -0.758362 1.27499 0.799999
      vertex -0.758362 1.27499 7
    endloop
  endfacet
  facet normal 0.896882 -0.442271 0
    outer loop
      vertex -0.758362 1.27499 0.799999
      vertex -0.905884 0.97583 7
      vertex -0.905884 0.97583 0.799999
    endloop
  endfacet
  facet normal 0.831471 -0.555567 0
    outer loop
      vertex -0.758362 1.27499 7
      vertex -0.573044 1.55234 0.799999
      vertex -0.573044 1.55234 7
    endloop
  endfacet
  facet normal 0.831471 -0.555567 0
    outer loop
      vertex -0.573044 1.55234 0.799999
      vertex -0.758362 1.27499 7
      vertex -0.758362 1.27499 0.799999
    endloop
  endfacet
  facet normal 0.751844 -0.65934 0
    outer loop
      vertex -0.573044 1.55234 7
      vertex -0.353119 1.80312 0.799999
      vertex -0.353119 1.80312 7
    endloop
  endfacet
  facet normal 0.751844 -0.65934 0
    outer loop
      vertex -0.353119 1.80312 0.799999
      vertex -0.573044 1.55234 7
      vertex -0.573044 1.55234 0.799999
    endloop
  endfacet
  facet normal 0.659335 -0.751849 0
    outer loop
      vertex -0.353119 1.80312 0.799999
      vertex -0.102341 2.02304 7
      vertex -0.353119 1.80312 7
    endloop
  endfacet
  facet normal 0.659335 -0.751849 0
    outer loop
      vertex -0.102341 2.02304 7
      vertex -0.353119 1.80312 0.799999
      vertex -0.102341 2.02304 0.799999
    endloop
  endfacet
  facet normal 0.555601 -0.831449 0
    outer loop
      vertex -0.102341 2.02304 0.799999
      vertex 0.174988 2.20836 7
      vertex -0.102341 2.02304 7
    endloop
  endfacet
  facet normal 0.555601 -0.831449 0
    outer loop
      vertex 0.174988 2.20836 7
      vertex -0.102341 2.02304 0.799999
      vertex 0.174988 2.20836 0.799999
    endloop
  endfacet
  facet normal 0.442261 -0.896886 0
    outer loop
      vertex 0.174988 2.20836 0.799999
      vertex 0.474152 2.35588 7
      vertex 0.174988 2.20836 7
    endloop
  endfacet
  facet normal 0.442261 -0.896886 0
    outer loop
      vertex 0.474152 2.35588 7
      vertex 0.174988 2.20836 0.799999
      vertex 0.474152 2.35588 0.799999
    endloop
  endfacet
  facet normal 0.321442 -0.946929 0
    outer loop
      vertex 0.474152 2.35588 0.799999
      vertex 0.790009 2.4631 7
      vertex 0.474152 2.35588 7
    endloop
  endfacet
  facet normal 0.321442 -0.946929 0
    outer loop
      vertex 0.790009 2.4631 7
      vertex 0.474152 2.35588 0.799999
      vertex 0.790009 2.4631 0.799999
    endloop
  endfacet
  facet normal 0.195107 -0.980782 0
    outer loop
      vertex 0.790009 2.4631 0.799999
      vertex 1.11716 2.52818 7
      vertex 0.790009 2.4631 7
    endloop
  endfacet
  facet normal 0.195107 -0.980782 0
    outer loop
      vertex 1.11716 2.52818 7
      vertex 0.790009 2.4631 0.799999
      vertex 1.11716 2.52818 0.799999
    endloop
  endfacet
  facet normal 0.0653868 -0.99786 0
    outer loop
      vertex 1.11716 2.52818 0.799999
      vertex 1.45 2.54999 7
      vertex 1.11716 2.52818 7
    endloop
  endfacet
  facet normal 0.0653868 -0.99786 0
    outer loop
      vertex 1.45 2.54999 7
      vertex 1.11716 2.52818 0.799999
      vertex 1.45 2.54999 0.799999
    endloop
  endfacet
  facet normal -0.0653868 -0.99786 0
    outer loop
      vertex 1.45 2.54999 0.799999
      vertex 1.78284 2.52818 7
      vertex 1.45 2.54999 7
    endloop
  endfacet
  facet normal -0.0653868 -0.99786 -0
    outer loop
      vertex 1.78284 2.52818 7
      vertex 1.45 2.54999 0.799999
      vertex 1.78284 2.52818 0.799999
    endloop
  endfacet
  facet normal -0.195107 -0.980782 0
    outer loop
      vertex 1.78284 2.52818 0.799999
      vertex 2.10999 2.4631 7
      vertex 1.78284 2.52818 7
    endloop
  endfacet
  facet normal -0.195107 -0.980782 -0
    outer loop
      vertex 2.10999 2.4631 7
      vertex 1.78284 2.52818 0.799999
      vertex 2.10999 2.4631 0.799999
    endloop
  endfacet
  facet normal -0.321449 -0.946927 0
    outer loop
      vertex 2.10999 2.4631 0.799999
      vertex 2.42584 2.35588 7
      vertex 2.10999 2.4631 7
    endloop
  endfacet
  facet normal -0.321449 -0.946927 -0
    outer loop
      vertex 2.42584 2.35588 7
      vertex 2.10999 2.4631 0.799999
      vertex 2.42584 2.35588 0.799999
    endloop
  endfacet
  facet normal -0.442278 -0.896878 0
    outer loop
      vertex 2.42584 2.35588 0.799999
      vertex 2.72499 2.20836 7
      vertex 2.42584 2.35588 7
    endloop
  endfacet
  facet normal -0.442278 -0.896878 -0
    outer loop
      vertex 2.72499 2.20836 7
      vertex 2.42584 2.35588 0.799999
      vertex 2.72499 2.20836 0.799999
    endloop
  endfacet
  facet normal -0.555585 -0.831459 0
    outer loop
      vertex 2.72499 2.20836 0.799999
      vertex 3.00233 2.02304 7
      vertex 2.72499 2.20836 7
    endloop
  endfacet
  facet normal -0.555585 -0.831459 -0
    outer loop
      vertex 3.00233 2.02304 7
      vertex 2.72499 2.20836 0.799999
      vertex 3.00233 2.02304 0.799999
    endloop
  endfacet
  facet normal -0.659332 -0.751852 0
    outer loop
      vertex 3.00233 2.02304 0.799999
      vertex 3.25311 1.80312 7
      vertex 3.00233 2.02304 7
    endloop
  endfacet
  facet normal -0.659332 -0.751852 -0
    outer loop
      vertex 3.25311 1.80312 7
      vertex 3.00233 2.02304 0.799999
      vertex 3.25311 1.80312 0.799999
    endloop
  endfacet
  facet normal -0.751837 -0.659349 0
    outer loop
      vertex 3.47304 1.55234 0.799999
      vertex 3.25311 1.80312 7
      vertex 3.25311 1.80312 0.799999
    endloop
  endfacet
  facet normal -0.751837 -0.659349 0
    outer loop
      vertex 3.25311 1.80312 7
      vertex 3.47304 1.55234 0.799999
      vertex 3.47304 1.55234 7
    endloop
  endfacet
  facet normal -0.831469 -0.555572 0
    outer loop
      vertex 3.65836 1.27499 0.799999
      vertex 3.47304 1.55234 7
      vertex 3.47304 1.55234 0.799999
    endloop
  endfacet
  facet normal -0.831469 -0.555572 0
    outer loop
      vertex 3.47304 1.55234 7
      vertex 3.65836 1.27499 0.799999
      vertex 3.65836 1.27499 7
    endloop
  endfacet
  facet normal -0.896884 -0.442266 0
    outer loop
      vertex 3.80588 0.97583 0.799999
      vertex 3.65836 1.27499 7
      vertex 3.65836 1.27499 0.799999
    endloop
  endfacet
  facet normal -0.896884 -0.442266 0
    outer loop
      vertex 3.65836 1.27499 7
      vertex 3.80588 0.97583 0.799999
      vertex 3.80588 0.97583 7
    endloop
  endfacet
  facet normal -0.946925 -0.321456 0
    outer loop
      vertex 3.9131 0.659988 0.799999
      vertex 3.80588 0.97583 7
      vertex 3.80588 0.97583 0.799999
    endloop
  endfacet
  facet normal -0.946925 -0.321456 0
    outer loop
      vertex 3.80588 0.97583 7
      vertex 3.9131 0.659988 0.799999
      vertex 3.9131 0.659988 7
    endloop
  endfacet
  facet normal -0.980782 -0.195108 0
    outer loop
      vertex 3.97818 0.33284 0.799999
      vertex 3.9131 0.659988 7
      vertex 3.9131 0.659988 0.799999
    endloop
  endfacet
  facet normal -0.980782 -0.195108 0
    outer loop
      vertex 3.9131 0.659988 7
      vertex 3.97818 0.33284 0.799999
      vertex 3.97818 0.33284 7
    endloop
  endfacet
  facet normal -0.997858 -0.0654166 0
    outer loop
      vertex 4 0 0.799999
      vertex 3.97818 0.33284 7
      vertex 3.97818 0.33284 0.799999
    endloop
  endfacet
  facet normal -0.997858 -0.0654166 0
    outer loop
      vertex 3.97818 0.33284 7
      vertex 4 0 0.799999
      vertex 4 0 7
    endloop
  endfacet
  facet normal -0.997858 0.0654166 0
    outer loop
      vertex 3.97818 -0.33284 0.799999
      vertex 4 0 7
      vertex 4 0 0.799999
    endloop
  endfacet
  facet normal -0.997858 0.0654166 0
    outer loop
      vertex 4 0 7
      vertex 3.97818 -0.33284 0.799999
      vertex 3.97818 -0.33284 7
    endloop
  endfacet
  facet normal -0.980782 0.195108 0
    outer loop
      vertex 3.9131 -0.659988 0.799999
      vertex 3.97818 -0.33284 7
      vertex 3.97818 -0.33284 0.799999
    endloop
  endfacet
  facet normal -0.980782 0.195108 0
    outer loop
      vertex 3.97818 -0.33284 7
      vertex 3.9131 -0.659988 0.799999
      vertex 3.9131 -0.659988 7
    endloop
  endfacet
  facet normal -0.946925 0.321456 0
    outer loop
      vertex 3.80588 -0.97583 0.799999
      vertex 3.9131 -0.659988 7
      vertex 3.9131 -0.659988 0.799999
    endloop
  endfacet
  facet normal -0.946925 0.321456 0
    outer loop
      vertex 3.9131 -0.659988 7
      vertex 3.80588 -0.97583 0.799999
      vertex 3.80588 -0.97583 7
    endloop
  endfacet
  facet normal -0.896884 0.442266 0
    outer loop
      vertex 3.65836 -1.27499 0.799999
      vertex 3.80588 -0.97583 7
      vertex 3.80588 -0.97583 0.799999
    endloop
  endfacet
  facet normal -0.896884 0.442266 0
    outer loop
      vertex 3.80588 -0.97583 7
      vertex 3.65836 -1.27499 0.799999
      vertex 3.65836 -1.27499 7
    endloop
  endfacet
  facet normal -0.831469 0.555572 0
    outer loop
      vertex 3.47304 -1.55234 0.799999
      vertex 3.65836 -1.27499 7
      vertex 3.65836 -1.27499 0.799999
    endloop
  endfacet
  facet normal -0.831469 0.555572 0
    outer loop
      vertex 3.65836 -1.27499 7
      vertex 3.47304 -1.55234 0.799999
      vertex 3.47304 -1.55234 7
    endloop
  endfacet
  facet normal -0.751837 0.659349 0
    outer loop
      vertex 3.25311 -1.80312 0.799999
      vertex 3.47304 -1.55234 7
      vertex 3.47304 -1.55234 0.799999
    endloop
  endfacet
  facet normal -0.751837 0.659349 0
    outer loop
      vertex 3.47304 -1.55234 7
      vertex 3.25311 -1.80312 0.799999
      vertex 3.25311 -1.80312 7
    endloop
  endfacet
  facet normal -0.659332 0.751852 0
    outer loop
      vertex 3.25311 -1.80312 0.799999
      vertex 3.00233 -2.02304 7
      vertex 3.25311 -1.80312 7
    endloop
  endfacet
  facet normal -0.659332 0.751852 0
    outer loop
      vertex 3.00233 -2.02304 7
      vertex 3.25311 -1.80312 0.799999
      vertex 3.00233 -2.02304 0.799999
    endloop
  endfacet
  facet normal -0.555585 0.831459 0
    outer loop
      vertex 3.00233 -2.02304 0.799999
      vertex 2.72499 -2.20836 7
      vertex 3.00233 -2.02304 7
    endloop
  endfacet
  facet normal -0.555585 0.831459 0
    outer loop
      vertex 2.72499 -2.20836 7
      vertex 3.00233 -2.02304 0.799999
      vertex 2.72499 -2.20836 0.799999
    endloop
  endfacet
  facet normal -0.442278 0.896878 0
    outer loop
      vertex 2.72499 -2.20836 0.799999
      vertex 2.42584 -2.35588 7
      vertex 2.72499 -2.20836 7
    endloop
  endfacet
  facet normal -0.442278 0.896878 0
    outer loop
      vertex 2.42584 -2.35588 7
      vertex 2.72499 -2.20836 0.799999
      vertex 2.42584 -2.35588 0.799999
    endloop
  endfacet
  facet normal -0.321449 0.946927 0
    outer loop
      vertex 2.42584 -2.35588 0.799999
      vertex 2.10999 -2.4631 7
      vertex 2.42584 -2.35588 7
    endloop
  endfacet
  facet normal -0.321449 0.946927 0
    outer loop
      vertex 2.10999 -2.4631 7
      vertex 2.42584 -2.35588 0.799999
      vertex 2.10999 -2.4631 0.799999
    endloop
  endfacet
  facet normal -0.195107 0.980782 0
    outer loop
      vertex 2.10999 -2.4631 0.799999
      vertex 1.78284 -2.52818 7
      vertex 2.10999 -2.4631 7
    endloop
  endfacet
  facet normal -0.195107 0.980782 0
    outer loop
      vertex 1.78284 -2.52818 7
      vertex 2.10999 -2.4631 0.799999
      vertex 1.78284 -2.52818 0.799999
    endloop
  endfacet
  facet normal -0.0653868 0.99786 0
    outer loop
      vertex 1.78284 -2.52818 0.799999
      vertex 1.45 -2.54999 7
      vertex 1.78284 -2.52818 7
    endloop
  endfacet
  facet normal -0.0653868 0.99786 0
    outer loop
      vertex 1.45 -2.54999 7
      vertex 1.78284 -2.52818 0.799999
      vertex 1.45 -2.54999 0.799999
    endloop
  endfacet
  facet normal 0.0653868 0.99786 -0
    outer loop
      vertex 1.45 -2.54999 0.799999
      vertex 1.11716 -2.52818 7
      vertex 1.45 -2.54999 7
    endloop
  endfacet
  facet normal 0.0653868 0.99786 0
    outer loop
      vertex 1.11716 -2.52818 7
      vertex 1.45 -2.54999 0.799999
      vertex 1.11716 -2.52818 0.799999
    endloop
  endfacet
  facet normal 0 0 1
    outer loop
      vertex 3.97818 0.33284 0.799999
      vertex 3.97818 -0.33284 0.799999
      vertex 4 0 0.799999
    endloop
  endfacet
  facet normal 0 0 1
    outer loop
      vertex 3.9131 0.659988 0.799999
      vertex 3.97818 -0.33284 0.799999
      vertex 3.97818 0.33284 0.799999
    endloop
  endfacet
  facet normal 0 0 1
    outer loop
      vertex 3.9131 0.659988 0.799999
      vertex 3.9131 -0.659988 0.799999
      vertex 3.97818 -0.33284 0.799999
    endloop
  endfacet
  facet normal 0 0 1
    outer loop
      vertex 3.80588 0.97583 0.799999
      vertex 3.9131 -0.659988 0.799999
      vertex 3.9131 0.659988 0.799999
    endloop
  endfacet
  facet normal 0 0 1
    outer loop
      vertex 3.80588 0.97583 0.799999
      vertex 3.80588 -0.97583 0.799999
      vertex 3.9131 -0.659988 0.799999
    endloop
  endfacet
  facet normal 0 0 1
    outer loop
      vertex 3.65836 1.27499 0.799999
      vertex 3.80588 -0.97583 0.799999
      vertex 3.80588 0.97583 0.799999
    endloop
  endfacet
  facet normal 0 0 1
    outer loop
      vertex 3.65836 1.27499 0.799999
      vertex 3.65836 -1.27499 0.799999
      vertex 3.80588 -0.97583 0.799999
    endloop
  endfacet
  facet normal 0 0 1
    outer loop
      vertex 3.47304 1.55234 0.799999
      vertex 3.65836 -1.27499 0.799999
      vertex 3.65836 1.27499 0.799999
    endloop
  endfacet
  facet normal 0 0 1
    outer loop
      vertex 3.47304 1.55234 0.799999
      vertex 3.47304 -1.55234 0.799999
      vertex 3.65836 -1.27499 0.799999
    endloop
  endfacet
  facet normal 0 0 1
    outer loop
      vertex 3.25311 1.80312 0.799999
      vertex 3.47304 -1.55234 0.799999
      vertex 3.47304 1.55234 0.799999
    endloop
  endfacet
  facet normal 0 0 1
    outer loop
      vertex 3.25311 1.80312 0.799999
      vertex 3.25311 -1.80312 0.799999
      vertex 3.47304 -1.55234 0.799999
    endloop
  endfacet
  facet normal 0 0 1
    outer loop
      vertex 3.00233 2.02304 0.799999
      vertex 3.25311 -1.80312 0.799999
      vertex 3.25311 1.80312 0.799999
    endloop
  endfacet
  facet normal 0 0 1
    outer loop
      vertex 3.00233 2.02304 0.799999
      vertex 3.00233 -2.02304 0.799999
      vertex 3.25311 -1.80312 0.799999
    endloop
  endfacet
  facet normal 0 0 1
    outer loop
      vertex 2.72499 2.20836 0.799999
      vertex 3.00233 -2.02304 0.799999
      vertex 3.00233 2.02304 0.799999
    endloop
  endfacet
  facet normal 0 0 1
    outer loop
      vertex 2.72499 2.20836 0.799999
      vertex 2.72499 -2.20836 0.799999
      vertex 3.00233 -2.02304 0.799999
    endloop
  endfacet
  facet normal 0 0 1
    outer loop
      vertex 2.42584 2.35588 0.799999
      vertex 2.72499 -2.20836 0.799999
      vertex 2.72499 2.20836 0.799999
    endloop
  endfacet
  facet normal 0 0 1
    outer loop
      vertex 2.42584 2.35588 0.799999
      vertex 2.42584 -2.35588 0.799999
      vertex 2.72499 -2.20836 0.799999
    endloop
  endfacet
  facet normal 0 0 1
    outer loop
      vertex 2.10999 2.4631 0.799999
      vertex 2.42584 -2.35588 0.799999
      vertex 2.42584 2.35588 0.799999
    endloop
  endfacet
  facet normal 0 0 1
    outer loop
      vertex 2.10999 2.4631 0.799999
      vertex 2.10999 -2.4631 0.799999
      vertex 2.42584 -2.35588 0.799999
    endloop
  endfacet
  facet normal 0 0 1
    outer loop
      vertex 1.78284 2.52818 0.799999
      vertex 2.10999 -2.4631 0.799999
      vertex 2.10999 2.4631 0.799999
    endloop
  endfacet
  facet normal 0 0 1
    outer loop
      vertex 1.78284 2.52818 0.799999
      vertex 1.78284 -2.52818 0.799999
      vertex 2.10999 -2.4631 0.799999
    endloop
  endfacet
  facet normal 0 0 1
    outer loop
      vertex 1.45 2.54999 0.799999
      vertex 1.78284 -2.52818 0.799999
      vertex 1.78284 2.52818 0.799999
    endloop
  endfacet
  facet normal 0 0 1
    outer loop
      vertex 1.45 2.54999 0.799999
      vertex 1.45 -2.54999 0.799999
      vertex 1.78284 -2.52818 0.799999
    endloop
  endfacet
  facet normal -0 0 1
    outer loop
      vertex 1.11716 2.52818 0.799999
      vertex 1.45 -2.54999 0.799999
      vertex 1.45 2.54999 0.799999
    endloop
  endfacet
  facet normal 0 0 1
    outer loop
      vertex 1.11716 2.52818 0.799999
      vertex 1.11716 -2.52818 0.799999
      vertex 1.45 -2.54999 0.799999
    endloop
  endfacet
  facet normal -0 0 1
    outer loop
      vertex 0.790009 2.4631 0.799999
      vertex 1.11716 -2.52818 0.799999
      vertex 1.11716 2.52818 0.799999
    endloop
  endfacet
  facet normal 0 0 1
    outer loop
      vertex 0.790009 2.4631 0.799999
      vertex 0.790009 -2.4631 0.799999
      vertex 1.11716 -2.52818 0.799999
    endloop
  endfacet
  facet normal -0 0 1
    outer loop
      vertex 0.474152 2.35588 0.799999
      vertex 0.790009 -2.4631 0.799999
      vertex 0.790009 2.4631 0.799999
    endloop
  endfacet
  facet normal 0 0 1
    outer loop
      vertex 0.474152 2.35588 0.799999
      vertex 0.474152 -2.35588 0.799999
      vertex 0.790009 -2.4631 0.799999
    endloop
  endfacet
  facet normal -0 0 1
    outer loop
      vertex 0.174988 2.20836 0.799999
      vertex 0.474152 -2.35588 0.799999
      vertex 0.474152 2.35588 0.799999
    endloop
  endfacet
  facet normal 0 0 1
    outer loop
      vertex 0.174988 2.20836 0.799999
      vertex 0.174988 -2.20836 0.799999
      vertex 0.474152 -2.35588 0.799999
    endloop
  endfacet
  facet normal -0 0 1
    outer loop
      vertex -0.102341 2.02304 0.799999
      vertex 0.174988 -2.20836 0.799999
      vertex 0.174988 2.20836 0.799999
    endloop
  endfacet
  facet normal 0 0 1
    outer loop
      vertex -0.102341 2.02304 0.799999
      vertex -0.102341 -2.02304 0.799999
      vertex 0.174988 -2.20836 0.799999
    endloop
  endfacet
  facet normal -0 0 1
    outer loop
      vertex -0.353119 1.80312 0.799999
      vertex -0.102341 -2.02304 0.799999
      vertex -0.102341 2.02304 0.799999
    endloop
  endfacet
  facet normal 0 0 1
    outer loop
      vertex -0.353119 1.80312 0.799999
      vertex -0.353119 -1.80312 0.799999
      vertex -0.102341 -2.02304 0.799999
    endloop
  endfacet
  facet normal -0 0 1
    outer loop
      vertex -0.573044 1.55234 0.799999
      vertex -0.353119 -1.80312 0.799999
      vertex -0.353119 1.80312 0.799999
    endloop
  endfacet
  facet normal 0 0 1
    outer loop
      vertex -0.573044 1.55234 0.799999
      vertex -0.573044 -1.55234 0.799999
      vertex -0.353119 -1.80312 0.799999
    endloop
  endfacet
  facet normal -0 0 1
    outer loop
      vertex -0.758362 1.27499 0.799999
      vertex -0.573044 -1.55234 0.799999
      vertex -0.573044 1.55234 0.799999
    endloop
  endfacet
  facet normal 0 0 1
    outer loop
      vertex -0.758362 1.27499 0.799999
      vertex -0.758362 -1.27499 0.799999
      vertex -0.573044 -1.55234 0.799999
    endloop
  endfacet
  facet normal -0 0 1
    outer loop
      vertex -0.905884 0.97583 0.799999
      vertex -0.758362 -1.27499 0.799999
      vertex -0.758362 1.27499 0.799999
    endloop
  endfacet
  facet normal 0 0 1
    outer loop
      vertex -0.905884 0.97583 0.799999
      vertex -0.905884 -0.97583 0.799999
      vertex -0.758362 -1.27499 0.799999
    endloop
  endfacet
  facet normal -0 0 1
    outer loop
      vertex -1.01311 0.659988 0.799999
      vertex -0.905884 -0.97583 0.799999
      vertex -0.905884 0.97583 0.799999
    endloop
  endfacet
  facet normal 0 0 1
    outer loop
      vertex -1.01311 0.659988 0.799999
      vertex -1.01311 -0.659988 0.799999
      vertex -0.905884 -0.97583 0.799999
    endloop
  endfacet
  facet normal -0 0 1
    outer loop
      vertex -1.07817 0.33284 0.799999
      vertex -1.01311 -0.659988 0.799999
      vertex -1.01311 0.659988 0.799999
    endloop
  endfacet
  facet normal 0 0 1
    outer loop
      vertex -1.07817 0.33284 0.799999
      vertex -1.07817 -0.33284 0.799999
      vertex -1.01311 -0.659988 0.799999
    endloop
  endfacet
  facet normal 0 -0 1
    outer loop
      vertex -1.07817 -0.33284 0.799999
      vertex -1.07817 0.33284 0.799999
      vertex -1.09999 0 0.799999
    endloop
  endfacet
endsolid OpenSCAD_Model
